M48
; DRILL file {KiCad 9.0.7-9.0.7~ubuntu24.04.1} date 2026-01-09T15:50:55+0100
; FORMAT={-:-/ absolute / metric / decimal}
; #@! TF.CreationDate,2026-01-09T15:50:55+01:00
; #@! TF.GenerationSoftware,Kicad,Pcbnew,9.0.7-9.0.7~ubuntu24.04.1
; #@! TF.FileFunction,Plated,1,2,PTH
FMAT,2
METRIC
; #@! TA.AperFunction,Plated,PTH,ViaDrill
T1C0.300
; #@! TA.AperFunction,Plated,PTH,ComponentDrill
T2C0.850
; #@! TA.AperFunction,Plated,PTH,ComponentDrill
T3C1.000
; #@! TA.AperFunction,Plated,PTH,ComponentDrill
T4C1.200
; #@! TA.AperFunction,Plated,PTH,ComponentDrill
T5C1.300
%
G90
G05
T1
X22.097Y-5.5
X24.45Y-60.6
X25.05Y-13.95
X29.0Y-28.4
X30.35Y-36.0
X30.35Y-60.6
X32.295Y-16.075
X32.7Y-20.4
X35.68Y-19.44
X37.0Y-24.55
X37.95Y-31.0
X40.1Y-66.3
X44.2Y-73.15
X48.1Y-45.85
X51.9Y-60.6
X52.0Y-58.5
X56.1Y-58.6
X62.4Y-53.55
X63.15Y-40.3
X64.1Y-67.15
X67.0Y-46.6
X67.0Y-52.1
X68.65Y-40.3
X76.325Y-51.125
X76.8Y-72.75
X77.312Y-68.5
X77.9Y-58.9
X79.9Y-72.65
X81.8Y-55.0
X105.15Y-46.95
X105.35Y-31.0
X110.8Y-51.3
T2
X58.1Y-57.31
X58.1Y-59.85
X58.1Y-62.39
X58.1Y-64.93
X58.1Y-67.47
X58.1Y-70.01
X58.1Y-72.55
X73.34Y-57.31
X73.34Y-59.85
X73.34Y-62.39
X73.34Y-64.93
X73.34Y-67.47
X73.34Y-70.01
X73.34Y-72.55
T3
X59.086Y-4.329
X61.626Y-4.329
X64.166Y-4.329
X66.706Y-4.329
X69.246Y-4.329
X71.786Y-4.329
X74.326Y-4.329
X107.85Y-16.8
X115.45Y-16.8
T4
X2.3Y-51.3
X2.3Y-56.3
X8.85Y-10.85
X8.85Y-15.85
X14.8Y-37.5
X14.8Y-42.5
X14.8Y-51.3
X14.8Y-56.3
X14.8Y-65.1
X14.8Y-70.1
X21.35Y-10.85
X21.35Y-15.85
X27.2Y-51.3
X27.2Y-56.3
X27.3Y-37.5
X27.3Y-42.5
X27.3Y-65.1
X27.3Y-70.1
X39.7Y-51.3
X39.7Y-56.3
X93.65Y-51.3
X93.65Y-56.3
X106.087Y-65.125
X106.087Y-70.125
X106.14Y-37.46
X106.14Y-42.46
X106.15Y-51.3
X106.15Y-56.3
X118.587Y-65.125
X118.587Y-70.125
X118.6Y-51.3
X118.6Y-56.3
X118.64Y-37.46
X118.64Y-42.46
X131.1Y-51.3
X131.1Y-56.3
T5
X71.3Y-48.5
X73.84Y-48.5
X85.1Y-58.725
X85.1Y-61.265
M30
